<?xml version="1.0" standalone="no"?>
<!DOCTYPE svg PUBLIC "-//W3C//DTD SVG 20010904//EN"
 "http://www.w3.org/TR/2001/REC-SVG-20010904/DTD/svg10.dtd">
<svg version="1.0" xmlns="http://www.w3.org/2000/svg"
 width="300.000000pt" height="235.000000pt" viewBox="0 0 300.000000 235.000000"
 preserveAspectRatio="xMidYMid meet">
<metadata>
Created by potrace 1.10, written by Peter Selinger 2001-2011
</metadata>
<g transform="translate(0.000000,235.000000) scale(0.100000,-0.100000)"
fill="#000000" stroke="none">
<path d="M1403 2005 c-57 -16 -153 -62 -193 -94 -22 -17 -27 -18 -51 -6 -15 8
-36 30 -47 50 -24 40 -34 43 -62 15 -25 -25 -26 -74 -2 -92 10 -7 27 -27 39
-44 l22 -30 -29 -59 c-61 -126 -64 -268 -10 -398 17 -41 40 -83 50 -92 11 -10
20 -21 20 -24 0 -15 -63 -43 -83 -37 -41 10 -62 -38 -37 -85 11 -20 60 -49 84
-49 7 0 38 20 67 44 l52 43 34 -23 c75 -50 140 -68 258 -68 120 -1 183 14 251
60 35 24 38 25 47 7 19 -34 65 -73 86 -73 29 0 101 74 101 104 0 33 -23 49
-58 41 -20 -4 -33 -1 -41 9 -10 12 -8 21 13 48 97 127 118 321 53 471 l-23 52
23 35 c13 19 33 43 44 53 24 23 24 42 -2 68 -24 24 -50 22 -63 -6 -5 -11 -22
-31 -38 -44 l-29 -23 -45 42 c-109 100 -287 143 -431 105z m216 -11 c27 -6 31
-10 29 -35 -1 -17 6 -37 19 -51 12 -13 30 -45 40 -73 18 -47 22 -51 73 -68 63
-20 85 -40 94 -82 6 -28 3 -33 -28 -48 -42 -20 -70 -68 -61 -106 23 -94 26
-102 66 -127 22 -13 45 -37 50 -52 6 -15 15 -34 19 -43 6 -11 -4 -30 -30 -65
-81 -101 -187 -159 -333 -179 l-47 -6 14 38 c7 21 19 67 25 101 10 53 10 67
-2 86 -17 26 -83 48 -135 46 -59 -3 -70 -1 -86 16 -9 8 -24 14 -34 12 -38 -7
-22 -119 29 -199 16 -25 29 -51 29 -57 0 -6 -24 2 -52 17 -156 87 -248 237
-248 407 l0 72 93 -89 c50 -49 97 -88 102 -89 20 0 35 24 35 56 0 20 11 45 30
69 17 21 30 43 30 50 0 6 13 29 30 51 17 23 30 52 30 69 0 25 -7 35 -45 57
l-44 27 13 39 c13 36 12 42 -6 72 -24 40 -19 46 58 70 60 19 182 26 243 14z
m130 -52 c157 -89 250 -260 238 -436 -3 -48 -14 -105 -28 -141 l-22 -60 -19
45 c-13 32 -29 51 -56 65 -33 18 -38 27 -51 82 -17 76 -9 102 43 127 45 21 50
29 36 70 -14 44 -46 72 -98 85 -43 12 -66 36 -77 83 -4 14 -18 36 -31 49 -13
12 -24 33 -24 46 0 21 4 23 23 18 12 -4 42 -19 66 -33z m-651 -1 c2 -14 17
-28 38 -38 19 -9 34 -19 34 -22 -1 -3 -12 -19 -25 -36 l-25 -30 -16 23 c-8 13
-27 35 -40 49 -28 31 -29 32 -8 61 19 27 38 24 42 -7z m206 -36 c16 -29 17
-40 8 -61 -19 -40 -15 -51 33 -84 25 -17 45 -37 45 -44 0 -7 -16 -35 -35 -62
-19 -27 -35 -55 -35 -63 0 -8 -12 -27 -26 -42 -15 -16 -28 -43 -31 -68 -3 -23
-11 -41 -18 -41 -7 0 -35 24 -63 53 -28 28 -64 64 -81 78 -57 49 -49 109 31
230 33 49 128 138 148 139 3 0 14 -16 24 -35z m706 -10 c0 -14 -6 -25 -12 -25
-7 0 -24 -19 -37 -41 l-23 -42 -24 29 -24 29 33 30 c19 17 36 38 40 48 10 26
47 4 47 -28z m-603 -585 c35 0 80 -7 99 -15 l36 -15 -7 -67 c-4 -38 -15 -87
-25 -109 l-18 -42 -53 10 c-60 11 -79 22 -79 48 0 9 -9 29 -20 43 -32 40 -50
92 -50 142 l0 46 26 -20 c21 -16 41 -21 91 -21z m-200 -156 c-93 -83 -121 -90
-162 -43 -33 41 -29 65 11 62 19 -2 40 6 59 22 l30 24 32 -32 c18 -17 32 -32
30 -33z m692 34 c6 -7 28 -13 48 -13 20 0 38 -4 40 -10 6 -18 -35 -74 -66 -90
-30 -15 -31 -15 -70 27 l-41 42 33 27 c37 33 39 33 56 17z"/>
<path d="M1406 1848 c-9 -12 -16 -36 -15 -53 0 -28 1 -27 17 15 13 32 23 45
37 45 16 0 21 -8 23 -37 4 -42 22 -52 22 -12 0 61 -53 87 -84 42z"/>
<path d="M1561 1856 c-17 -20 -26 -86 -13 -86 6 0 12 17 14 37 2 28 8 39 22
41 24 5 36 -14 36 -56 0 -20 4 -31 10 -27 11 7 5 57 -11 86 -12 22 -42 25 -58
5z"/>
<path d="M1451 1722 c-20 -3 -22 -8 -17 -35 10 -51 54 -137 70 -137 24 0 80
90 87 140 4 24 1 25 -56 30 -33 3 -71 3 -84 2z m129 -22 c0 -15 -58 -127 -69
-134 -12 -8 -16 -1 -46 78 l-25 66 70 0 c41 0 70 -4 70 -10z"/>
<path d="M1532 1005 c-16 -12 -27 -13 -41 -5 -30 16 -76 12 -102 -9 -17 -14
-33 -17 -61 -13 -84 11 -93 -67 -10 -92 33 -11 27 8 -8 21 -20 7 -30 18 -30
31 0 25 29 36 63 23 20 -8 28 -6 42 9 31 35 93 33 117 -4 5 -7 11 -5 20 6 31
41 105 36 122 -7 4 -12 10 -14 25 -5 31 16 76 12 95 -9 21 -23 14 -41 -15 -41
-10 0 -19 -4 -19 -10 0 -14 23 -12 45 3 26 20 13 61 -25 77 -21 9 -37 9 -60 2
-26 -10 -33 -8 -55 14 -28 28 -70 31 -103 9z"/>
<path d="M1510 880 c0 -22 5 -40 10 -40 6 0 10 18 10 40 0 22 -4 40 -10 40 -5
0 -10 -18 -10 -40z"/>
<path d="M1397 865 c9 -19 20 -32 24 -29 9 5 -22 64 -33 64 -4 0 0 -16 9 -35z"/>
<path d="M1636 878 c-3 -13 -6 -30 -6 -38 1 -13 2 -13 9 0 16 27 22 60 13 60
-5 0 -12 -10 -16 -22z"/>
<path d="M840 585 c0 -168 1 -175 20 -175 19 0 20 7 20 89 0 82 2 91 22 105
31 22 75 20 88 -3 5 -11 10 -58 10 -105 0 -79 2 -86 20 -86 19 0 20 7 20 90 0
104 -11 135 -53 150 -25 8 -38 7 -69 -9 l-38 -18 0 68 c0 62 -2 69 -20 69 -19
0 -20 -7 -20 -175z"/>
<path d="M1110 745 c-17 -20 -5 -45 20 -45 11 0 23 7 26 15 6 15 -11 45 -26
45 -4 0 -13 -7 -20 -15z"/>
<path d="M390 580 l0 -170 105 0 c98 0 105 1 105 20 0 18 -7 20 -80 20 l-80 0
0 59 0 59 65 -6 c61 -4 65 -4 65 17 0 19 -5 21 -65 21 l-65 0 0 58 0 57 80 -3
c76 -4 80 -3 80 17 0 20 -5 21 -105 21 l-105 0 0 -170z m40 5 c0 -8 -4 -15
-10 -15 -5 0 -7 7 -4 15 4 8 8 15 10 15 2 0 4 -7 4 -15z"/>
<path d="M1460 730 c0 -18 7 -20 61 -20 l60 0 -3 -150 c-3 -150 -3 -150 20
-150 22 0 22 1 22 150 l0 150 55 0 c48 0 55 2 55 20 0 19 -7 20 -135 20 -128
0 -135 -1 -135 -20z"/>
<path d="M686 708 c-3 -13 -6 -33 -6 -45 0 -16 -6 -23 -20 -23 -11 0 -20 -7
-20 -16 0 -11 6 -14 20 -9 19 6 20 2 20 -87 0 -60 4 -98 12 -106 14 -14 67
-16 88 -2 19 12 5 25 -28 25 -27 0 -27 0 -30 89 l-3 89 36 -6 c30 -5 35 -3 35
14 0 17 -5 19 -35 13 l-35 -6 0 46 c0 50 -22 66 -34 24z"/>
<path d="M1295 652 c-60 -14 -91 -66 -82 -139 4 -37 12 -54 37 -76 29 -26 38
-29 83 -24 59 5 92 35 103 92 16 86 -61 167 -141 147z m79 -54 c23 -33 21
-113 -4 -138 -46 -46 -120 -4 -120 68 0 54 31 92 75 92 24 0 39 -7 49 -22z"/>
<path d="M1832 648 c-85 -23 -100 -183 -21 -224 78 -40 159 1 173 87 15 92
-63 163 -152 137z m92 -50 c23 -33 21 -109 -4 -136 -29 -31 -73 -29 -99 4 -32
41 -25 121 13 146 24 16 75 8 90 -14z"/>
<path d="M2393 649 c-11 -4 -28 -18 -37 -31 l-16 -22 0 27 c0 20 -5 27 -20 27
-19 0 -20 -7 -20 -120 0 -118 0 -120 23 -120 21 0 22 3 19 74 -4 92 13 126 63
126 28 0 45 13 45 35 0 8 -38 11 -57 4z"/>
<path d="M1110 530 c0 -113 1 -120 20 -120 19 0 20 7 20 120 0 113 -1 120 -20
120 -19 0 -20 -7 -20 -120z"/>
<path d="M2032 551 c2 -80 7 -103 22 -120 23 -25 82 -28 112 -6 23 18 35 19
31 3 -1 -6 6 -14 16 -16 15 -3 17 7 17 117 0 114 -1 121 -20 121 -19 0 -20 -7
-20 -89 0 -82 -2 -91 -22 -105 -33 -23 -65 -20 -84 8 -12 19 -15 44 -12 105 3
79 2 81 -20 81 -24 0 -24 -1 -20 -99z"/>
<path d="M2502 627 c-22 -24 -28 -52 -14 -74 4 -6 33 -22 65 -36 57 -26 68
-42 45 -65 -14 -14 -67 -16 -88 -2 -9 6 -19 5 -28 -2 -36 -30 94 -52 135 -23
11 8 23 25 25 38 8 43 -8 64 -62 82 -28 9 -54 23 -57 31 -13 35 44 57 87 34
26 -14 39 9 15 27 -31 22 -98 17 -123 -10z"/>
</g>
</svg>
